<svg width="97" height="43" viewBox="0 0 97 43" fill="none" xmlns="http://www.w3.org/2000/svg">
<path d="M0.51709 20.6421V0.278453H9.34664C10.8978 0.278453 12.2003 0.48726 13.2543 0.904874C14.3149 1.32249 15.1137 1.91245 15.6506 2.67476C16.1942 3.43707 16.466 4.33527 16.466 5.36936C16.466 6.11841 16.3002 6.80118 15.9688 7.41766C15.644 8.03413 15.1866 8.55118 14.5966 8.96879C14.0067 9.37978 13.3173 9.66482 12.5285 9.82391V10.0228C13.4035 10.0559 14.1989 10.278 14.9148 10.689C15.6307 11.0933 16.2008 11.6535 16.625 12.3694C17.0493 13.0786 17.2614 13.9139 17.2614 14.875C17.2614 15.9887 16.9697 16.9797 16.3864 17.8481C15.8097 18.7164 14.9877 19.3992 13.9205 19.8964C12.8533 20.3935 11.5805 20.6421 10.1023 20.6421H0.51709ZM6.0455 16.2273H8.63073C9.55876 16.2273 10.2548 16.055 10.7188 15.7103C11.1828 15.3589 11.4148 14.8419 11.4148 14.1591C11.4148 13.6819 11.3054 13.2775 11.0867 12.9461C10.8679 12.6146 10.5564 12.3627 10.152 12.1904C9.75431 12.018 9.27372 11.9319 8.71027 11.9319H6.0455V16.2273ZM6.0455 8.51141H8.31254C8.79645 8.51141 9.224 8.43518 9.59521 8.28271C9.96643 8.13025 10.2548 7.9115 10.4603 7.62646C10.6724 7.3348 10.7785 6.98016 10.7785 6.56254C10.7785 5.93281 10.5531 5.45222 10.1023 5.12078C9.65156 4.78271 9.08148 4.61368 8.39209 4.61368H6.0455V8.51141ZM38.9475 10.4603C38.9475 12.7273 38.5067 14.6397 37.625 16.1975C36.7434 17.7486 35.5535 18.9252 34.0554 19.7273C32.5573 20.5228 30.8869 20.9205 29.0441 20.9205C27.188 20.9205 25.5109 20.5195 24.0128 19.7174C22.5214 18.9087 21.3348 17.7287 20.4532 16.1776C19.5782 14.6198 19.1407 12.7141 19.1407 10.4603C19.1407 8.19323 19.5782 6.28413 20.4532 4.733C21.3348 3.17523 22.5214 1.99862 24.0128 1.20317C25.5109 0.401085 27.188 4.36306e-05 29.0441 4.36306e-05C30.8869 4.36306e-05 32.5573 0.401085 34.0554 1.20317C35.5535 1.99862 36.7434 3.17523 37.625 4.733C38.5067 6.28413 38.9475 8.19323 38.9475 10.4603ZM33.26 10.4603C33.26 9.24057 33.0976 8.21311 32.7728 7.37789C32.4546 6.53603 31.9806 5.89966 31.3509 5.46879C30.7278 5.03129 29.9589 4.81254 29.0441 4.81254C28.1293 4.81254 27.3571 5.03129 26.7273 5.46879C26.1042 5.89966 25.6303 6.53603 25.3054 7.37789C24.9873 8.21311 24.8282 9.24057 24.8282 10.4603C24.8282 11.68 24.9873 12.7107 25.3054 13.5526C25.6303 14.3878 26.1042 15.0242 26.7273 15.4617C27.3571 15.8926 28.1293 16.108 29.0441 16.108C29.9589 16.108 30.7278 15.8926 31.3509 15.4617C31.9806 15.0242 32.4546 14.3878 32.7728 13.5526C33.0976 12.7107 33.26 11.68 33.26 10.4603ZM52.4826 6.64209C52.4296 5.97921 52.181 5.46217 51.7369 5.09095C51.2994 4.71974 50.6332 4.53413 49.7383 4.53413C49.1682 4.53413 48.7009 4.60374 48.3363 4.74294C47.9784 4.87552 47.7132 5.05781 47.5409 5.28982C47.3685 5.52182 47.279 5.78698 47.2724 6.08527C47.2592 6.33054 47.3022 6.5526 47.4017 6.75146C47.5077 6.9437 47.6735 7.11936 47.8988 7.27845C48.1242 7.43092 48.4126 7.57012 48.7639 7.69607C49.1152 7.82201 49.5328 7.9347 50.0167 8.03414L51.6872 8.39209C52.8141 8.63073 53.7786 8.94559 54.5807 9.33669C55.3827 9.72779 56.039 10.1885 56.5494 10.7188C57.0598 11.2425 57.4343 11.8324 57.673 12.4887C57.9183 13.1449 58.0442 13.8608 58.0508 14.6364C58.0442 15.9754 57.7094 17.1089 57.0466 18.037C56.3837 18.965 55.4358 19.671 54.2028 20.1549C52.9765 20.6388 51.5016 20.8807 49.7781 20.8807C48.0082 20.8807 46.4637 20.6189 45.1446 20.0952C43.8321 19.5715 42.8112 18.7661 42.0821 17.679C41.3595 16.5853 40.995 15.1866 40.9883 13.483H46.2383C46.2715 14.1061 46.4272 14.6298 46.7057 15.054C46.9841 15.4783 47.3752 15.7998 47.879 16.0185C48.3894 16.2373 48.9959 16.3466 49.6986 16.3466C50.2885 16.3466 50.7824 16.2737 51.1801 16.1279C51.5778 15.9821 51.8794 15.7799 52.0849 15.5214C52.2904 15.2628 52.3965 14.9678 52.4031 14.6364C52.3965 14.3249 52.2937 14.0531 52.0949 13.8211C51.9026 13.5824 51.5844 13.3703 51.1403 13.1847C50.6962 12.9925 50.0963 12.8135 49.3406 12.6478L47.3122 12.2103C45.5092 11.8192 44.0873 11.1662 43.0466 10.2515C42.0125 9.33006 41.4987 8.07391 41.5054 6.483C41.4987 5.19038 41.8434 4.06018 42.5395 3.09237C43.2421 2.11794 44.2132 1.35894 45.4528 0.815384C46.699 0.271824 48.1275 4.36306e-05 49.7383 4.36306e-05C51.3823 4.36306e-05 52.8041 0.275138 54.004 0.825328C55.2038 1.37552 56.1285 2.15109 56.7781 3.15203C57.4343 4.14635 57.7658 5.3097 57.7724 6.64209H52.4826ZM71.1311 6.64209C71.0781 5.97921 70.8295 5.46217 70.3853 5.09095C69.9478 4.71974 69.2816 4.53413 68.3868 4.53413C67.8167 4.53413 67.3494 4.60374 66.9848 4.74294C66.6268 4.87552 66.3617 5.05781 66.1893 5.28982C66.017 5.52182 65.9275 5.78698 65.9209 6.08527C65.9076 6.33054 65.9507 6.5526 66.0501 6.75146C66.1562 6.9437 66.3219 7.11936 66.5473 7.27845C66.7727 7.43092 67.061 7.57012 67.4123 7.69607C67.7637 7.82201 68.1813 7.9347 68.6652 8.03414L70.3356 8.39209C71.4625 8.63073 72.427 8.94559 73.2291 9.33669C74.0312 9.72779 74.6874 10.1885 75.1978 10.7188C75.7083 11.2425 76.0828 11.8324 76.3214 12.4887C76.5667 13.1449 76.6926 13.8608 76.6993 14.6364C76.6926 15.9754 76.3579 17.1089 75.695 18.037C75.0321 18.965 74.0842 19.671 72.8513 20.1549C71.6249 20.6388 70.15 20.8807 68.4265 20.8807C66.6566 20.8807 65.1121 20.6189 63.793 20.0952C62.4805 19.5715 61.4597 18.7661 60.7305 17.679C60.008 16.5853 59.6434 15.1866 59.6368 13.483H64.8868C64.9199 14.1061 65.0757 14.6298 65.3541 15.054C65.6325 15.4783 66.0236 15.7998 66.5274 16.0185C67.0378 16.2373 67.6443 16.3466 68.347 16.3466C68.937 16.3466 69.4308 16.2737 69.8285 16.1279C70.2263 15.9821 70.5279 15.7799 70.7334 15.5214C70.9388 15.2628 71.0449 14.9678 71.0515 14.6364C71.0449 14.3249 70.9422 14.0531 70.7433 13.8211C70.5511 13.5824 70.2329 13.3703 69.7888 13.1847C69.3446 12.9925 68.7447 12.8135 67.989 12.6478L65.9606 12.2103C64.1576 11.8192 62.7357 11.1662 61.695 10.2515C60.6609 9.33006 60.1472 8.07391 60.1538 6.483C60.1472 5.19038 60.4919 4.06018 61.1879 3.09237C61.8906 2.11794 62.8617 1.35894 64.1013 0.815384C65.3475 0.271824 66.776 4.36306e-05 68.3868 4.36306e-05C70.0307 4.36306e-05 71.4526 0.275138 72.6524 0.825328C73.8522 1.37552 74.7769 2.15109 75.4265 3.15203C76.0828 4.14635 76.4142 5.3097 76.4209 6.64209H71.1311ZM11.4944 28.6421C11.4413 27.9792 11.1928 27.4622 10.7486 27.091C10.3111 26.7197 9.64493 26.5341 8.75004 26.5341C8.17997 26.5341 7.71264 26.6037 7.34806 26.7429C6.9901 26.8755 6.72495 27.0578 6.5526 27.2898C6.38025 27.5218 6.29076 27.787 6.28414 28.0853C6.27088 28.3305 6.31397 28.5526 6.4134 28.7515C6.51946 28.9437 6.68518 29.1194 6.91056 29.2785C7.13593 29.4309 7.42429 29.5701 7.77561 29.6961C8.12694 29.822 8.54455 29.9347 9.02845 30.0341L10.6989 30.3921C11.8258 30.6307 12.7903 30.9456 13.5924 31.3367C14.3945 31.7278 15.0507 32.1885 15.5611 32.7188C16.0715 33.2425 16.4461 33.8324 16.6847 34.4887C16.93 35.1449 17.0559 35.8608 17.0625 36.6364C17.0559 37.9754 16.7212 39.1089 16.0583 40.037C15.3954 40.965 14.4475 41.671 13.2145 42.1549C11.9882 42.6388 10.5133 42.8807 8.78982 42.8807C7.01993 42.8807 5.47542 42.6189 4.15629 42.0952C2.84379 41.5715 1.82296 40.7661 1.09379 39.679C0.371257 38.5853 0.00667319 37.1866 4.44129e-05 35.483H5.25004C5.28319 36.1061 5.43897 36.6298 5.71737 37.054C5.99578 37.4783 6.38688 37.7998 6.89067 38.0185C7.40109 38.2373 8.00762 38.3466 8.71027 38.3466C9.30023 38.3466 9.79408 38.2737 10.1918 38.1279C10.5895 37.9821 10.8911 37.7799 11.0966 37.5214C11.3021 37.2628 11.4082 36.9678 11.4148 36.6364C11.4082 36.3249 11.3054 36.0531 11.1066 35.8211C10.9143 35.5824 10.5962 35.3703 10.152 35.1847C9.7079 34.9925 9.108 34.8135 8.35232 34.6478L6.32391 34.2103C4.52088 33.8192 3.099 33.1662 2.05828 32.2515C1.02419 31.3301 0.510461 30.0739 0.51709 28.483C0.510461 27.1904 0.855158 26.0602 1.55118 25.0924C2.25383 24.1179 3.22495 23.3589 4.46453 22.8154C5.71075 22.2718 7.13925 22 8.75004 22C10.394 22 11.8159 22.2751 13.0157 22.8253C14.2155 23.3755 15.1402 24.1511 15.7898 25.152C16.4461 26.1464 16.7775 27.3097 16.7841 28.6421H11.4944ZM19.1655 42.6421V22.2785H24.6939V30.233H32.0121V22.2785H37.5405V42.6421H32.0121V34.6875H24.6939V42.6421H19.1655ZM59.8928 32.4603C59.8928 34.7273 59.452 36.6397 58.5704 38.1975C57.6887 39.7486 56.4989 40.9252 55.0008 41.7273C53.5026 42.5228 51.8322 42.9205 49.9894 42.9205C48.1333 42.9205 46.4562 42.5195 44.9581 41.7174C43.4667 40.9087 42.2801 39.7287 41.3985 38.1776C40.5235 36.6198 40.086 34.7141 40.086 32.4603C40.086 30.1932 40.5235 28.2841 41.3985 26.733C42.2801 25.1752 43.4667 23.9986 44.9581 23.2032C46.4562 22.4011 48.1333 22 49.9894 22C51.8322 22 53.5026 22.4011 55.0008 23.2032C56.4989 23.9986 57.6887 25.1752 58.5704 26.733C59.452 28.2841 59.8928 30.1932 59.8928 32.4603ZM54.2053 32.4603C54.2053 31.2406 54.0429 30.2131 53.7181 29.3779C53.3999 28.536 52.9259 27.8997 52.2962 27.4688C51.6731 27.0313 50.9042 26.8125 49.9894 26.8125C49.0746 26.8125 48.3024 27.0313 47.6726 27.4688C47.0495 27.8997 46.5756 28.536 46.2508 29.3779C45.9326 30.2131 45.7735 31.2406 45.7735 32.4603C45.7735 33.68 45.9326 34.7107 46.2508 35.5526C46.5756 36.3878 47.0495 37.0242 47.6726 37.4617C48.3024 37.8926 49.0746 38.108 49.9894 38.108C50.9042 38.108 51.6731 37.8926 52.2962 37.4617C52.9259 37.0242 53.3999 36.3878 53.7181 35.5526C54.0429 34.7107 54.2053 33.68 54.2053 32.4603ZM62.4507 42.6421V22.2785H77.1268V26.733H67.9791V30.233H76.3711V34.6875H67.9791V38.1875H77.087V42.6421H62.4507ZM90.8459 28.6421C90.7929 27.9792 90.5443 27.4622 90.1002 27.091C89.6627 26.7197 88.9965 26.5341 88.1016 26.5341C87.5315 26.5341 87.0642 26.6037 86.6996 26.7429C86.3417 26.8755 86.0765 27.0578 85.9042 27.2898C85.7318 27.5218 85.6423 27.787 85.6357 28.0853C85.6224 28.3305 85.6655 28.5526 85.765 28.7515C85.871 28.9437 86.0367 29.1194 86.2621 29.2785C86.4875 29.4309 86.7758 29.5701 87.1272 29.6961C87.4785 29.822 87.8961 29.9347 88.38 30.0341L90.0505 30.3921C91.1774 30.6307 92.1419 30.9456 92.9439 31.3367C93.746 31.7278 94.4023 32.1885 94.9127 32.7188C95.4231 33.2425 95.7976 33.8324 96.0363 34.4887C96.2815 35.1449 96.4075 35.8608 96.4141 36.6364C96.4075 37.9754 96.0727 39.1089 95.4098 40.037C94.747 40.965 93.7991 41.671 92.5661 42.1549C91.3398 42.6388 89.8649 42.8807 88.1414 42.8807C86.3715 42.8807 84.827 42.6189 83.5079 42.0952C82.1954 41.5715 81.1745 40.7661 80.4454 39.679C79.7228 38.5853 79.3582 37.1866 79.3516 35.483H84.6016C84.6348 36.1061 84.7905 36.6298 85.0689 37.054C85.3473 37.4783 85.7384 37.7998 86.2422 38.0185C86.7526 38.2373 87.3592 38.3466 88.0618 38.3466C88.6518 38.3466 89.1456 38.2737 89.5434 38.1279C89.9411 37.9821 90.2427 37.7799 90.4482 37.5214C90.6537 37.2628 90.7598 36.9678 90.7664 36.6364C90.7598 36.3249 90.657 36.0531 90.4581 35.8211C90.2659 35.5824 89.9477 35.3703 89.5036 35.1847C89.0595 34.9925 88.4596 34.8135 87.7039 34.6478L85.6755 34.2103C83.8724 33.8192 82.4506 33.1662 81.4098 32.2515C80.3758 31.3301 79.862 30.0739 79.8687 28.483C79.862 27.1904 80.2067 26.0602 80.9027 25.0924C81.6054 24.1179 82.5765 23.3589 83.8161 22.8154C85.0623 22.2718 86.4908 22 88.1016 22C89.7455 22 91.1674 22.2751 92.3672 22.8253C93.567 23.3755 94.4918 24.1511 95.1414 25.152C95.7976 26.1464 96.1291 27.3097 96.1357 28.6421H90.8459Z" fill="white"/>
</svg>
